{"asset":{"version":"2.0","generator":"Conceptual Freemantle machine builder"},"scene":0,"scenes":[{"nodes":[0,1,2,3,4,5,6,7,8,9,10,11,12]}],"nodes":[{"name":"Base frame","mesh":0},{"name":"Infeed conveyor","mesh":1},{"name":"Main conveyor","mesh":2},{"name":"Outfeed conveyor","mesh":3},{"name":"Machine envelope","mesh":4},{"name":"Electrical cabinet","mesh":5},{"name":"Control panel","mesh":6},{"name":"Pneumatic manifold","mesh":7},{"name":"Service door A","mesh":8},{"name":"Service door B","mesh":9},{"name":"Product tooling","mesh":10},{"name":"Pneumatic cylinder 1","mesh":11},{"name":"Pneumatic cylinder 2","mesh":12}],"meshes":[{"name":"Base frame","primitives":[{"attributes":{"POSITION":0,"NORMAL":1},"indices":2,"material":0}]},{"name":"Infeed conveyor","primitives":[{"attributes":{"POSITION":3,"NORMAL":4},"indices":5,"material":3}]},{"name":"Main conveyor","primitives":[{"attributes":{"POSITION":6,"NORMAL":7},"indices":8,"material":3}]},{"name":"Outfeed conveyor","primitives":[{"attributes":{"POSITION":9,"NORMAL":10},"indices":11,"material":3}]},{"name":"Machine envelope","primitives":[{"attributes":{"POSITION":12,"NORMAL":13},"indices":14,"material":2}]},{"name":"Electrical cabinet","primitives":[{"attributes":{"POSITION":15,"NORMAL":16},"indices":17,"material":1}]},{"name":"Control panel","primitives":[{"attributes":{"POSITION":18,"NORMAL":19},"indices":20,"material":5}]},{"name":"Pneumatic manifold","primitives":[{"attributes":{"POSITION":21,"NORMAL":22},"indices":23,"material":5}]},{"name":"Service door A","primitives":[{"attributes":{"POSITION":24,"NORMAL":25},"indices":26,"material":2}]},{"name":"Service door B","primitives":[{"attributes":{"POSITION":27,"NORMAL":28},"indices":29,"material":2}]},{"name":"Product tooling","primitives":[{"attributes":{"POSITION":30,"NORMAL":31},"indices":32,"material":4}]},{"name":"Pneumatic cylinder 1","primitives":[{"attributes":{"POSITION":33,"NORMAL":34},"indices":35,"material":5}]},{"name":"Pneumatic cylinder 2","primitives":[{"attributes":{"POSITION":36,"NORMAL":37},"indices":38,"material":5}]}],"materials":[{"name":"Royal Blue Frame","alphaMode":"OPAQUE","doubleSided":true,"pbrMetallicRoughness":{"baseColorFactor":[0.04,0.2,0.52,1],"metallicFactor":0.55,"roughnessFactor":0.32}},{"name":"Brushed Steel","alphaMode":"OPAQUE","doubleSided":true,"pbrMetallicRoughness":{"baseColorFactor":[0.48,0.57,0.67,1],"metallicFactor":0.55,"roughnessFactor":0.32}},{"name":"Safety Guard Transparent","alphaMode":"BLEND","doubleSided":true,"pbrMetallicRoughness":{"baseColorFactor":[0.24,0.67,0.92,0.22],"metallicFactor":0.55,"roughnessFactor":0.32}},{"name":"Conveyor Black","alphaMode":"OPAQUE","doubleSided":true,"pbrMetallicRoughness":{"baseColorFactor":[0.02,0.04,0.07,1],"metallicFactor":0.55,"roughnessFactor":0.32}},{"name":"Signal Gold","alphaMode":"OPAQUE","doubleSided":true,"pbrMetallicRoughness":{"baseColorFactor":[0.94,0.65,0.18,1],"metallicFactor":0.55,"roughnessFactor":0.32}},{"name":"Pneumatic Cyan","alphaMode":"OPAQUE","doubleSided":true,"pbrMetallicRoughness":{"baseColorFactor":[0.12,0.63,0.78,1],"metallicFactor":0.55,"roughnessFactor":0.32}}],"buffers":[{"uri":"continuous-carton-sealer.bin","byteLength":10224}],"bufferViews":[{"buffer":0,"byteOffset":0,"byteLength":288,"target":34962},{"buffer":0,"byteOffset":288,"byteLength":288,"target":34962},{"buffer":0,"byteOffset":576,"byteLength":144,"target":34963},{"buffer":0,"byteOffset":720,"byteLength":288,"target":34962},{"buffer":0,"byteOffset":1008,"byteLength":288,"target":34962},{"buffer":0,"byteOffset":1296,"byteLength":144,"target":34963},{"buffer":0,"byteOffset":1440,"byteLength":288,"target":34962},{"buffer":0,"byteOffset":1728,"byteLength":288,"target":34962},{"buffer":0,"byteOffset":2016,"byteLength":144,"target":34963},{"buffer":0,"byteOffset":2160,"byteLength":288,"target":34962},{"buffer":0,"byteOffset":2448,"byteLength":288,"target":34962},{"buffer":0,"byteOffset":2736,"byteLength":144,"target":34963},{"buffer":0,"byteOffset":2880,"byteLength":288,"target":34962},{"buffer":0,"byteOffset":3168,"byteLength":288,"target":34962},{"buffer":0,"byteOffset":3456,"byteLength":144,"target":34963},{"buffer":0,"byteOffset":3600,"byteLength":288,"target":34962},{"buffer":0,"byteOffset":3888,"byteLength":288,"target":34962},{"buffer":0,"byteOffset":4176,"byteLength":144,"target":34963},{"buffer":0,"byteOffset":4320,"byteLength":288,"target":34962},{"buffer":0,"byteOffset":4608,"byteLength":288,"target":34962},{"buffer":0,"byteOffset":4896,"byteLength":144,"target":34963},{"buffer":0,"byteOffset":5040,"byteLength":288,"target":34962},{"buffer":0,"byteOffset":5328,"byteLength":288,"target":34962},{"buffer":0,"byteOffset":5616,"byteLength":144,"target":34963},{"buffer":0,"byteOffset":5760,"byteLength":288,"target":34962},{"buffer":0,"byteOffset":6048,"byteLength":288,"target":34962},{"buffer":0,"byteOffset":6336,"byteLength":144,"target":34963},{"buffer":0,"byteOffset":6480,"byteLength":288,"target":34962},{"buffer":0,"byteOffset":6768,"byteLength":288,"target":34962},{"buffer":0,"byteOffset":7056,"byteLength":144,"target":34963},{"buffer":0,"byteOffset":7200,"byteLength":288,"target":34962},{"buffer":0,"byteOffset":7488,"byteLength":288,"target":34962},{"buffer":0,"byteOffset":7776,"byteLength":144,"target":34963},{"buffer":0,"byteOffset":7920,"byteLength":384,"target":34962},{"buffer":0,"byteOffset":8304,"byteLength":384,"target":34962},{"buffer":0,"byteOffset":8688,"byteLength":384,"target":34963},{"buffer":0,"byteOffset":9072,"byteLength":384,"target":34962},{"buffer":0,"byteOffset":9456,"byteLength":384,"target":34962},{"buffer":0,"byteOffset":9840,"byteLength":384,"target":34963}],"accessors":[{"bufferView":0,"componentType":5126,"count":24,"type":"VEC3","min":[-2.8000000000000003,-1.0300000000000002,-0.25],"max":[2.8000000000000003,1.5300000000000002,0.25]},{"bufferView":1,"componentType":5126,"count":24,"type":"VEC3"},{"bufferView":2,"componentType":5125,"count":36,"type":"SCALAR"},{"bufferView":3,"componentType":5126,"count":24,"type":"VEC3","min":[-2.016,0.21999999999999997,0.36],"max":[0.0,1.02,0.54]},{"bufferView":4,"componentType":5126,"count":24,"type":"VEC3"},{"bufferView":5,"componentType":5125,"count":36,"type":"SCALAR"},{"bufferView":6,"componentType":5126,"count":24,"type":"VEC3","min":[-0.5320000000000003,0.21000000000000002,0.36],"max":[2.548,1.03,0.54]},{"bufferView":7,"componentType":5126,"count":24,"type":"VEC3"},{"bufferView":8,"componentType":5125,"count":36,"type":"SCALAR"},{"bufferView":9,"componentType":5126,"count":24,"type":"VEC3","min":[1.7360000000000002,0.21999999999999997,0.36],"max":[2.9680000000000004,1.02,0.54]},{"bufferView":10,"componentType":5126,"count":24,"type":"VEC3"},{"bufferView":11,"componentType":5125,"count":36,"type":"SCALAR"},{"bufferView":12,"componentType":5126,"count":24,"type":"VEC3","min":[-2.5760000000000005,-0.03600000000000003,-0.8680000000000001],"max":[2.5760000000000005,2.2680000000000007,0.8680000000000001]},{"bufferView":13,"componentType":5126,"count":24,"type":"VEC3"},{"bufferView":14,"componentType":5125,"count":36,"type":"SCALAR"},{"bufferView":15,"componentType":5126,"count":24,"type":"VEC3","min":[1.0680000000000003,-0.9418000000000002,0.31700000000000017],"max":[2.0680000000000005,-0.49180000000000024,1.6670000000000003]},{"bufferView":16,"componentType":5126,"count":24,"type":"VEC3"},{"bufferView":17,"componentType":5125,"count":36,"type":"SCALAR"},{"bufferView":18,"componentType":5126,"count":24,"type":"VEC3","min":[-1.8430000000000004,-1.2420000000000004,1.0140000000000002],"max":[-1.2930000000000001,-1.0620000000000003,1.7140000000000004]},{"bufferView":19,"componentType":5126,"count":24,"type":"VEC3"},{"bufferView":20,"componentType":5125,"count":36,"type":"SCALAR"},{"bufferView":21,"componentType":5126,"count":24,"type":"VEC3","min":[-0.4,0.5418000000000003,0.6930000000000001],"max":[0.4,0.8918000000000001,1.0430000000000001]},{"bufferView":22,"componentType":5126,"count":24,"type":"VEC3"},{"bufferView":23,"componentType":5125,"count":36,"type":"SCALAR"},{"bufferView":24,"componentType":5126,"count":24,"type":"VEC3","min":[-1.608,-1.2176000000000002,0.24240000000000017],"max":[-0.40800000000000003,-1.1376000000000002,1.6424]},{"bufferView":25,"componentType":5126,"count":24,"type":"VEC3"},{"bufferView":26,"componentType":5125,"count":36,"type":"SCALAR"},{"bufferView":27,"componentType":5126,"count":24,"type":"VEC3","min":[0.07200000000000006,-1.2176000000000002,0.24240000000000017],"max":[1.272,-1.1376000000000002,1.6424]},{"bufferView":28,"componentType":5126,"count":24,"type":"VEC3"},{"bufferView":29,"componentType":5125,"count":36,"type":"SCALAR"},{"bufferView":30,"componentType":5126,"count":24,"type":"VEC3","min":[-0.75,0.645,0.6920000000000002],"max":[0.75,0.9949999999999999,1.2920000000000003]},{"bufferView":31,"componentType":5126,"count":24,"type":"VEC3"},{"bufferView":32,"componentType":5125,"count":36,"type":"SCALAR"},{"bufferView":33,"componentType":5126,"count":32,"type":"VEC3","min":[-2.2420000000000004,0.3920000000000001,0.3264000000000001],"max":[-1.3420000000000003,0.6320000000000001,0.5664]},{"bufferView":34,"componentType":5126,"count":32,"type":"VEC3"},{"bufferView":35,"componentType":5125,"count":96,"type":"SCALAR"},{"bufferView":36,"componentType":5126,"count":32,"type":"VEC3","min":[1.3420000000000003,0.3920000000000001,0.3264000000000001],"max":[2.2420000000000004,0.6320000000000001,0.5664]},{"bufferView":37,"componentType":5126,"count":32,"type":"VEC3"},{"bufferView":38,"componentType":5125,"count":96,"type":"SCALAR"}]}